<svg id="Layer_1" data-name="Layer 1" xmlns="http://www.w3.org/2000/svg" viewBox="0 0 450.19 317.16"><defs><style>.cls-1{fill:#fefefe;}.cls-2{fill:#0a0a0a;}.cls-3{fill:#050505;}.cls-4{fill:#080808;}.cls-5{fill:#f5f5f5;}.cls-6{fill:#ebebeb;}.cls-7{fill:#ececec;}.cls-8{fill:#060606;}.cls-9{fill:#070707;}.cls-10{fill:#f8f8f8;}.cls-11{fill:#0b0b0b;}.cls-12{fill:#eee;}.cls-13{fill:#0d0d0d;}.cls-14{fill:#fbfbfb;}.cls-15{fill:#131313;}.cls-16{fill:#111;}.cls-17{fill:#0e0e0e;}.cls-18{fill:#f9f9f9;}.cls-19{fill:#f0f0f0;}.cls-20{fill:#0f0f0f;}.cls-21{fill:#fafafa;}.cls-22{fill:#121212;}.cls-23{fill:#141414;}.cls-24{fill:#f7f7f7;}.cls-25{fill:#f6f6f6;}.cls-26{fill:#0c0c0c;}.cls-27{fill:#f3f3f3;}.cls-28{fill:#101010;}.cls-29{fill:#171717;}.cls-30{fill:#161616;}.cls-31{fill:#1b1b1b;}.cls-32{fill:#090909;}.cls-33{fill:#191919;}.cls-34{fill:#fdfdfd;}.cls-35{fill:#212121;}.cls-36{fill:#f4f4f4;}.cls-37{fill:#fcfcfc;}.cls-38{fill:#010101;}.cls-39{fill:#f1f1f1;}.cls-40{fill:#f2f2f2;}.cls-41{fill:#2b2b2b;}.cls-42{fill:#232323;}.cls-43{fill:#818181;}.cls-44{fill:#777;}</style></defs><title>tvSuper</title><path class="cls-1" d="M532,473c0,26.33,0,52.67.07,79,0,2.5-.57,3.06-3.07,3.06q-222-.1-444,0c-2.5,0-3.08-.56-3.07-3.06.11-26.33.07-52.67.07-79,1.18-.42,1.8.46,2.49,1.11s1.53,2.08,2.57,2.24c5.61.83,11.17,3.09,16.92.78,2.19-1.3,2.37-3.74,3.27-5.77s.39-5.16,3.59-5.91a5.23,5.23,0,0,1,3.45,1.6c3.76,3.1,8,3.21,12.41,1.89,1.84-.42,2.65-1.92,3.48-3.38a3.86,3.86,0,0,0,0-4,11.84,11.84,0,0,0-4.75-4.05c-2.86-1.37-3.25-3.61-2.23-6.34.59-1.86,1-3.72-.06-5.57-.63-1-1.47-1.77-2.18-2.68-2.67-6,.1-15.57,6.29-21a34.57,34.57,0,0,1,9-6.21c11.68-3.9,13.21-2.79,13.2,9.5q0,25.23,0,50.46a26.87,26.87,0,0,0,.35,6.46c.55,1.58,1.27,3.1,1.9,4.66a14.78,14.78,0,0,0,.82,1.44c4.66,2.47,9.81,2.28,14.75,2.31,25.13.19,50.26.08,75.39.1a17.1,17.1,0,0,1,5.45.38c1,.32,2.55.5,1.56,2.28-19.11.5-38.22.1-57.33.21-9.23.05-18.45,0-26.83,0a26.65,26.65,0,0,1,3.23,0q40.14,0,80.28,0c1.54-1.06,2.71-3.13,5.05-2.11s2.1,3.46,2.28,5.56c.26,3-.54,5.9-.67,8.86a2.82,2.82,0,0,1-.51,1.39c-3.8,1.89-8.15-.32-11.95,1.57a15.09,15.09,0,0,0-2.54,3,13.69,13.69,0,0,0-1.09,2.57c-.44,3.91-.11,7.83-.22,11.74a7.34,7.34,0,0,0,2.24,5.74c2.51,1.66,5.38,1.63,8.19,1.64q57.12.06,114.23,0c3.51,0,7.56.65,9.45-3.74a35.88,35.88,0,0,1,1-4.09c.06-4.16.71-8.34-.41-12.46a9.11,9.11,0,0,0-4.33-4.28,10.82,10.82,0,0,0-2.46-.42c-3.13-.48-7.57,1.2-8.9-2.62a23.27,23.27,0,0,1,.27-15.17c.63-1.83,2.6-1.86,4.27-1.94,3.32-.15,6.65-.07,10-.07q39.17,0,78.34,0a26,26,0,0,0,6.44-.32,10.77,10.77,0,0,0,5.39-4,12.88,12.88,0,0,0,1.26-3.71c.3-19.25,0-38.49.13-57.73,0-9.15,1.85-10.46,10.75-7.75a24.11,24.11,0,0,1,8.4,4.19,25,25,0,0,1,10,14.44c1,3.6,1.47,7.15-1.68,10.19a5.66,5.66,0,0,0-1.4,5.59c1,4-.25,6.63-3.73,8.77s-4.49,5.21-2,8.87c5.2,4.25,11,3.6,16.49-1.87.31-.39.65-.76,1-1.13,1.19-1.33,2.21-3.66,4.15-3,2.24.76.83,3.17.86,4.85a47.32,47.32,0,0,0,.15,6c.8,5.52,3.59,7.43,9,5.83,2.35-.69,4.59-.25,6.88-.36a7.78,7.78,0,0,0,5.31-2.43q.73-.75,1.48-1.49C530.69,473,531.24,472.6,532,473Z" transform="translate(-81.9 -237.9)"/><path class="cls-1" d="M82,463q0-110.37-.1-220.74c0-3.57.69-4.37,4.33-4.36q99.38.21,198.77.1c1.83,2.29.27,5.4,1.86,7.75.33,1.34.43,2.74.86,4.06a7.4,7.4,0,0,1,.26,2.11,5,5,0,0,1-.3,1.38,3.25,3.25,0,0,1-2.1,1.68,13.67,13.67,0,0,0-5.05,2.74,18.3,18.3,0,0,0-3.17,3.56c-1.45,1.55-2.61,3.54-5.16,3.45-6.38-1.59-12.88-1.24-19.35-1.24q-42.71,0-85.41,0h99.23c-2.88,3.52-5.67,2.85-8.15,2.86-31.64.08-63.28,0-94.91.08-2.47.29-4.89,1-7.41.93a5.21,5.21,0,0,0-5.55,4.06c-2.16,7.52-1.07,15.24-1.13,22.83-.27,32.62-.11,65.25-.13,97.88a36.9,36.9,0,0,1-.31,7.46c-.86,2.67-3.24,2.43-5.32,2.75-8.39,1.28-16.67,2.68-23.87,7.84-6.57,4.71-10.64,11.31-14.84,17.88a9.33,9.33,0,0,0-2.26,5c-.49,1.54-.47,3.24-1.38,4.66-3.39.25-2.21,3.7-3.68,5.29-.58,2.14-2.57,3-4,4.38a13.47,13.47,0,0,0-2.36,3.12c-3.36,3.79-4.51,9-8.12,12.64A1.19,1.19,0,0,1,82,463Z" transform="translate(-81.9 -237.9)"/><path class="cls-1" d="M340,238q94,0,188-.1c3.42,0,4.1.67,4.1,4.1q-.19,109.5-.1,219a2.39,2.39,0,0,1-2,.66c-1.89-.54-2.41-2.22-3.12-3.74-.88-2.09-2.58-3.68-3.57-5.71a29.75,29.75,0,0,0-5.61-6.56,19.61,19.61,0,0,0-2.84-1.92,5.26,5.26,0,0,1-3-4.23c-1.39-11.1-7.62-19.41-15.46-26.8-1.85-2.73-6.07-3-7-6.68,1.86-6.19.69-8.07-5.88-9.33a25.88,25.88,0,0,0-7-.21c-3.52.29-4.8-1.47-4.87-4.69-.1-4.83-.06-9.66-.05-14.49q.05-40.23,0-80.47c0-4.77-1-9.45,1-14.11,1-2.2,1.57-3.71,4.1-1.76,3,2.31,5.26.38,7.54-1.4,3-2.32,5.73-5.33,10-1.93,1.23,1,2.91.09,3.94-1.2s.58-2.6-.51-3.52c-2.28-1.92-2-3.55.26-5.18s4.27-2.13,6.36.64c2.77,3.66,5.62,3.54,8.44.11.77-.94,1.48-1.89.87-3.14a2.44,2.44,0,0,0-3-1.29c-3.89,1.11-7-.53-10.36-2.23-5-2.55-7.12-1.2-11,2.93-3.63,3.89-8.38,6.36-10.27,12.18-1.05,3.23-5.76,2-7.17-1.58-4.25-10.89-11.42-15.91-23-15.92q-47.48,0-95,0a35,35,0,0,0-6.47.48c-7.5,1.4-7.48,1.38-11.08-4.91-.61-1.06-1.25-2.15-.63-3.26C338.12,247.44,338.32,242.49,340,238Z" transform="translate(-81.9 -237.9)"/><path class="cls-1" d="M340,238c1.6,3.89.06,7.92-1.47,10.88-1.77,3.44-.54,4.74.71,7.63,1.59,3.66,3.15,3.36,5.82,2.48a26.1,26.1,0,0,1,8.36-1c32.47,0,64.94.15,97.41-.1,5.16,0,10.89,1.36,13.42,4.05,3.11,3.32,9,5.57,8.74,11.78-.08,1.71-.29,4.13,2.53,3.86,2.51-.24,4.75-1.7,4.33-4.48-.66-4.33.63-6.39,5.15-6.13,1.5.09,2.34-.9,3.08-2.14,3.87-6.41,8.55-7.84,14.68-3.49,2.56,1.81,4.52,2.21,7.07,1.22s4.68-.4,5.81,2.11c1,2.34-.11,3.76-2.18,5.28-6.09,4.46-6.52,4.29-10.72-1.55-2.66-3.7-3.64,1.65-6.49,1.47,3.06,2.17,6.71,3.8,3.73,7.41-2.41,2.92-5.71,4.43-8.68.27-.92-1.29-1.52-.69-2.34,0a42.38,42.38,0,0,0-4.63,3.73c-3.51,3.87-6.72,3.8-10.17-1a19.06,19.06,0,0,1-2.13,8.53c-1.29,2.57,1.24,5.21,1.21,8.32-.38,31.63-.21,63.27-.27,94.91,0,2.48.39,3.41,3.27,3.11,4.23-.44,8.43-.35,12.53,1.82,4.95,2.62,5.33,3.19,1.92,8a7.49,7.49,0,0,0-.68,1.84c-6.3-.49-12.15-2.95-18.31-4.1-6.72-1-7.08-1.36-7.09-8.19q0-56.55,0-113.1a61.45,61.45,0,0,0-.18-7.45c-.72-2.24-1.12-4.67-3.55-5.89a10.15,10.15,0,0,1-2.53-2.15c-2-2.09-4.66-1.47-7.09-1.48q-46.69-.06-93.37,0c-2.79,0-5.59-.52-8.36.13a2.49,2.49,0,0,1-.93,1.08c-2.62,1.22-5.55.26-8.2,1.18a7.11,7.11,0,0,1-3.71,0c-1.8-.82-2.53-2.72-3.93-3.94a13.61,13.61,0,0,1-1.32-1.53c-.42-.74-1-1.47-.33-2.31.31-.17.48-.33.48-.43a10.47,10.47,0,0,0-1.1,1c-1.22.74-2.59.65-3.91.87s-2.64.67-4,.93c-2.27.32-4.13,1.86-6.4,2.19-.46.79-1.48-3-1.73.23-.07.93-1,1.55-1.81,2.05a5.69,5.69,0,0,1-2.73.85,5.29,5.29,0,0,1-3.27-1.41c-2.09-4.32-6.14-6.92-9.13-10.46-.26-2.07.87-4.24,2.31-4.59,3.06-.73-.56-1.48.26-2.26a13.53,13.53,0,0,1,4.79-2.53c2.88-.56,3.94,1.81,6,4.12-1.36-5.34.54-8.8,4.14-11.54Z" transform="translate(-81.9 -237.9)"/><path class="cls-2" d="M82.8,463c2.69-4.44,4.1-9.64,8.06-13.31A3.06,3.06,0,0,1,92.44,452c-.49,3.19-2.54,5.67-4,8.42a20.48,20.48,0,0,0-2.4,7.48c-.3,3,.8,5.34,3.72,6.19s4-1.55,5.08-3.64,1.53-4.35,2.45-6.47c.79-1.83,1.72-3.58,3.67-4.47,5,.72.3,3.74,1.31,5.42a27.3,27.3,0,0,1-1.44,5.78c-.44,1.35-2,2.78-.89,4.1s2.73-.35,4.15-.42c3.28.34,1.83,1.94.9,3.4a11.7,11.7,0,0,1-2.77,1.92C97.8,481.18,84.93,476.81,82,473v-9A6.83,6.83,0,0,0,82.8,463Z" transform="translate(-81.9 -237.9)"/><path class="cls-3" d="M286.9,249.71c-1.71-.82-.43-2.31-.78-3.44.16-5.11,3.5-7.18,7.88-8.27h7a11.57,11.57,0,0,1,2,2.2c2.11,3.91,1,6.19-3.3,7a22.69,22.69,0,0,0-3.9.59C292.73,248,290,249.65,286.9,249.71Z" transform="translate(-81.9 -237.9)"/><path class="cls-1" d="M294.85,246.94a5.53,5.53,0,0,1,1.35-.58c7.63-1,7.63-1,4.8-8.37h3c.75,2.26,2.2,4.35,1.77,6.91A3.67,3.67,0,0,1,305,246c-3.68,1.79-4.8,5.66-7,8.65-3.72-.05-7.5.28-11-1.54l0-1.11c2.88-1.16,4.76-4.19,8.16-4.4a.52.52,0,0,0,0-.31A2,2,0,0,0,294.85,246.94Z" transform="translate(-81.9 -237.9)"/><path class="cls-1" d="M305,246v-1c1.19-2.41,1.25-5.47,4-7h6c-1.06,3.69-5.75,6.47-2.66,11.26.52.81-.71,1.83-1.62,2.18-1.46.55-1.55-.66-1.73-1.64A4.22,4.22,0,0,0,305,246Z" transform="translate(-81.9 -237.9)"/><path class="cls-4" d="M527.81,457l2.17,4c1.51,1.32.89,3.51,2,5v7l-1.23,1c-3,1.28-1.16-2.22-2.53-2.57-.36-4.21-2.49-8-3-12.14C525.52,457.89,526.13,456.83,527.81,457Z" transform="translate(-81.9 -237.9)"/><path class="cls-5" d="M294,238c-3.31,2.1-6.21,4.6-7.88,8.27-2.68-2.44-1-5.48-1.12-8.27Z" transform="translate(-81.9 -237.9)"/><path class="cls-1" d="M309,238c-1,2.49-1.83,5.14-4,7,.84-2.5-3.18-4.3-1-7Z" transform="translate(-81.9 -237.9)"/><path class="cls-6" d="M532,466a6.11,6.11,0,0,1-2-5h2Z" transform="translate(-81.9 -237.9)"/><path class="cls-7" d="M82.8,463c.22.73-.19,1-.8,1v-1Q82.4,463,82.8,463Z" transform="translate(-81.9 -237.9)"/><path class="cls-8" d="M375.85,526l-.93,3a1.21,1.21,0,0,1-1.43,0c-2.42-2.19-1.62-5.11-1.72-7.81-.08-2.24.7-4.58-1-6.58A8.85,8.85,0,0,0,369,513a13.22,13.22,0,0,0-5.41-.63q-59,0-118.05,0a14.45,14.45,0,0,0-1.66.16c-1.49-.34-3.89,1.13-4-2L242,508c4.2-1.58,8.7.42,12.9-1.08l.05,0c1.11-1.2,0-2.8.71-4.07a27.1,27.1,0,0,0,.08-8.52c.05-2.94-1.83-3.57-4.27-3.56a11.6,11.6,0,0,0-1.67-.29c-27.16-.18-54.3-.1-81.43,0-4.3,0-8.5-1.29-12.84-.5-1.68.31-3-1.14-4.44-2a2.39,2.39,0,0,1-.1-1c-1-2.87,1.09-2.71,2.84-2.89,1.23,0,2.42.42,3.65.44q95.89.1,191.78,0a61.31,61.31,0,0,1,8.47.23c1.74.46,3.31,1.15,3.76,3.15-1.07,1.78-4.1,2.38-3.22,5.33-.16,3.43-1,6.87.2,10.28-.21,2.38-.18,4,3.24,3.95s6.92-.86,10.25.61c1,1.32,2.91,1.89,3,3.87C376.1,516.63,374.87,521.38,375.85,526Z" transform="translate(-81.9 -237.9)"/><path class="cls-8" d="M103.91,428c6.6-12.86,15.81-22.64,30.69-25.44,4.4-.83,8.91-1.07,13.37-1.58,1.09-1.33.53-2.88.53-4.33q0-50.83,0-101.66a20.11,20.11,0,0,1,0-2.49c.15-1.22-.66-3,1-3.45,1.37-.38,2.41.8,3.15,2,1.09,2.36.91,4.88.91,7.36q0,88.82,0,177.63a21,21,0,0,1-.54,6.44c-.82,1.82-2,2.57-4,1.52-1-1.83-.89-3.83-.89-5.82,0-19.59-.19-39.19.12-58.78.07-4.64-1.87-4.91-5.21-4.12-2.69.64-5.25,1.85-8.08,1.88a2.14,2.14,0,0,1-.48-2.22c3-4,7.69-3.48,11.78-4.56,2.08-1.57,2-3.17.06-4.78-20.23-1.07-36.77,12.34-40.9,33.16a13.94,13.94,0,0,1-11.78,10.8C92.6,449,92.17,448.15,93,447L97,443c1.26-1.71,2.71-3.28,3.89-5.05,1.14-1.6-.76-3.82,1.08-5.27C102.84,431.23,102.66,429.33,103.91,428Z" transform="translate(-81.9 -237.9)"/><path class="cls-8" d="M473.45,401.86c5.73.91,11.45,1.9,16.55,4.92,2.33,1.78,5.83,1.95,7.12,5.17-.13,1-.35,2-1.53,2.35-6.72-4-13.52-7.88-21.63-8.26-2.23-.07-5.36-2.28-6.32,1.16-1.13,4.06,2.88,3.36,5.11,4.15a9.8,9.8,0,0,0,1.43.35c4,1.81,8.51,2.83,11.17,6.86a2.77,2.77,0,0,1-1.39,2.57,35.85,35.85,0,0,0-13.43-5.91c-3.4-.81-4.89-.34-4.84,3.88.25,19.55.11,39.11.08,58.66,0,1.45.42,3-.55,4.33-2.52.47-3.49-1.2-4.29-3.11a24.88,24.88,0,0,1-.54-6.93q0-85.52,0-171c0-2.64-.3-5.34,1-7.81,4-1.93,4-1.93,4,2.8q0,39.42,0,78.85c0,7.15.23,14.32-.09,21.45-.18,4,.81,6,5.1,5.24A5.43,5.43,0,0,1,473.45,401.86Z" transform="translate(-81.9 -237.9)"/><path class="cls-2" d="M374,529h.95c.23,4.78-3.14,5.76-6.75,6-4.81.25-9.65.07-14.48.07H248.35c-3.14,0-6.31.13-8.4-2.89-1.54-6.14-2.81-12.27,0-18.4a1.51,1.51,0,0,1,1.51.58c1.44,2.74.7,5.71.87,8.58.11,1.92-.24,3.93,1.49,5.38,2.09,1.46,4.48,1.12,6.77,1.12q56.35,0,112.71,0a27.18,27.18,0,0,0,7.89-1A3.53,3.53,0,0,1,374,529Z" transform="translate(-81.9 -237.9)"/><path class="cls-9" d="M361,489.09c.19-1.58-1.31-2-2-3,2.2-2.16,5-1.43,7.57-1.44,30-.08,60,0,90.06-.08,2.37,0,3.51-2.44,5.65-2.9,1.86.61,2.54,1.81,1.87,3.71L460,488.91c-1,.86-2.21.56-3.35.56q-46.35,0-92.69,0A5.68,5.68,0,0,1,361,489.09Z" transform="translate(-81.9 -237.9)"/><path class="cls-10" d="M151.09,488c5.41,1.9,11,1.44,16.6,1.44q39.48,0,79,0c1.76,0,3.65-.66,5.3.58-1.07.68-2.26.45-3.41.45q-40.49,0-81,0a15.66,15.66,0,0,1-2.19,0c26.57,0,53.89,0,81.21,0,1.8,0,3.67.45,5.4-.45,3.36-.75,4.37,1,4.17,4a24.73,24.73,0,0,1,0,9c-.77,1.2.87,3.11-1.17,3.94-1.68-3.58.41-7.11.18-10.74-.27-4.21-1.59-5.06-5.14-3.19-1.65-1.73-3.77-1-5.67-1-25.95-.05-51.89-.15-77.84.09-3.76,0-7.21-2.32-11.22-.72A3.5,3.5,0,0,1,151.09,488Z" transform="translate(-81.9 -237.9)"/><path class="cls-4" d="M530.07,475c-2.14,3.29-5.23,4.55-8.92,3.51a5,5,0,0,0-3.68.41c-6.23,2.52-10.83-.27-11.43-7a27.35,27.35,0,0,1,.89-10.69c-2.89.53-2.53,3.8-4.53,4.9-1.08.42-2.09.55-2.76-.68.45-4.36,2.45-7.55,7-8.47,4-.82,7.12,1.13,9.51,5.62a37.81,37.81,0,0,1,2.36,6c1.4,4.25,4,6.35,8.65,5.26A5.59,5.59,0,0,1,530.07,475Z" transform="translate(-81.9 -237.9)"/><path class="cls-11" d="M484,421.14a2.3,2.3,0,0,1,1.19-2.19c4.41.68,6.77,3.93,8.74,7.37,2.35,4.07,3.29,8.67,4,13.29.18,1.17.32,2.62-.54,3.34-3.82,3.21-3.6,7.29-3.34,11.73s-4.52,4.84-6.7,7.38c-1.55,1.5-.38,3.59-1.12,5.27-.67.79-1.4,1.37-2.5.8-2.85-5.38-2.08-8.87,3.12-11.34,2.81-1.33,3.61-2.76,2.74-5.73-1-3.49-1-7,2.58-9.26,1.7-1.06,1.35-2.38,1.11-3.86C492.14,431.23,489.59,425.34,484,421.14Z" transform="translate(-81.9 -237.9)"/><path class="cls-12" d="M361,489.09c9.61.1,19.22.26,28.83.28q31.85.06,63.71,0c2.14,0,4.28-.29,6.42-.45-1.51,2-3.68,1.15-5.55,1.16-30.1.05-60.19.14-90.29-.08-4.09,0-5.22,1.45-5.11,5s-1.07,8.09.62,10.7,6.39,1.05,9.78,1.24a2.69,2.69,0,0,1,2.54,1.23c-3.11-.17-6.25-.67-9.34-.43-3.74.29-6-.28-4.77-4.72a30.85,30.85,0,0,1,0-10C356.37,489.67,358.43,489.18,361,489.09Z" transform="translate(-81.9 -237.9)"/><path class="cls-11" d="M105,477.81c-.36-.91,1.63-2.52-.83-2.8-1.24-2.7-.17-5.55-.53-8.33-.27-2.09-1.27-1.79-2.58-1.55-1.46-1.76,2.56-3.32.19-5.12,2.14-4.22,7.49-4.38,10.86-.18,2.15,2.68,3.75,5.88,7.3,7.09,2.08,1,4.16,1.73,6.35.27.88-.35,1.76-.85,2.62,0A2.4,2.4,0,0,1,128,470c-6.67,3-12.22,1-17.1-3.91-.69.29-2.18-2.91-2.25.63,0,1.74.25,3.61-.5,5.32C107.39,474.09,107.45,476.63,105,477.81Z" transform="translate(-81.9 -237.9)"/><path class="cls-13" d="M135,415l0,2.12c-.52,1.9-2.42,2.15-3.74,3-6.63,4.35-9.34,10.87-10.74,18.3-.39,2.07,1.27,2.92,1.62,4.46a2.49,2.49,0,0,1-1.61,1.74c-3.84.37-4.71-1.88-4.49-5.09a32.31,32.31,0,0,0,.74-3.75c1.37-4.47,2-9.23,5.16-13,1.18-1.2,2.39-2.37,3.63-3.51C128.61,417.59,130.93,414.38,135,415Z" transform="translate(-81.9 -237.9)"/><path class="cls-10" d="M456.81,491.77H362.09v-.5h94.62Z" transform="translate(-81.9 -237.9)"/><path class="cls-14" d="M456.67,493.86H363.33v-.5h93.54Z" transform="translate(-81.9 -237.9)"/><path class="cls-14" d="M249.65,493.68H163.16v-.38H250Z" transform="translate(-81.9 -237.9)"/><path class="cls-13" d="M483.69,468.13l2.5-1.2c1.39-.59,2.82-.11,4.23-.2,3.44.83,6.25-2,9.6-1.69a2.9,2.9,0,0,0,2.38,1.1C496.3,472.47,489.36,473.2,483.69,468.13Z" transform="translate(-81.9 -237.9)"/><path class="cls-15" d="M120.8,444.45l1.38-1.53,1.94,1.7a14.15,14.15,0,0,1,0,6.89c-.83,2.32-.48,4.2,1.94,5.35a1.84,1.84,0,0,1,0,2.33c-4.43.07-6.35-1.41-6.18-5.43A49.15,49.15,0,0,1,120.8,444.45Z" transform="translate(-81.9 -237.9)"/><path class="cls-16" d="M125.91,459.24l.14-2.37c2.56.12,3.56,2.31,5.06,3.82a10.11,10.11,0,0,1,0,5.72c-.95,1.26-1,3.33-3.13,3.54l-.1-3.18A36.75,36.75,0,0,0,125.91,459.24Z" transform="translate(-81.9 -237.9)"/><path class="cls-17" d="M240,514c-2.29,6-.41,12.09-.05,18.13-3.7-6.2-1.85-12.78-1.31-19.28C239.72,512.48,240.14,512.91,240,514Z" transform="translate(-81.9 -237.9)"/><path class="cls-18" d="M234.21,513c.44-2,3.55-3.37.45-4.85a2.59,2.59,0,0,1,.45-1.81c1.23-1,.69,1,1.36.93,1-.09,1.89-.31,3.35-.57C237.95,508.77,238,511.78,234.21,513Z" transform="translate(-81.9 -237.9)"/><path class="cls-19" d="M108.15,472c-.17-3.54,0-7.12-1.95-11.16,3.37,1.07,3.55,3.55,4.7,5.21C108,467.1,109.92,470.4,108.15,472Z" transform="translate(-81.9 -237.9)"/><path class="cls-20" d="M375.85,526c-1.55-4.58-1-9.29-.86-14C377.07,516.57,375.74,521.32,375.85,526Z" transform="translate(-81.9 -237.9)"/><path class="cls-21" d="M118.14,475.47c-1.55.58-2.29,3.42-4.3,1.36a1.49,1.49,0,0,1-.09-2.19C115.62,472.35,116.76,475,118.14,475.47Z" transform="translate(-81.9 -237.9)"/><path class="cls-5" d="M254.91,507c-4.21,1.48-8.66,0-12.9,1.08C246.13,505.53,250.59,507.05,254.91,507Z" transform="translate(-81.9 -237.9)"/><path class="cls-11" d="M240,514l-1.36-1.14c.15-.88.27-1.78,1.21-2.24.55,1.52,2.24.44,3.06,1.34.65,1,0,1.68-.7,2.31A1.07,1.07,0,0,1,241,514Z" transform="translate(-81.9 -237.9)"/><path class="cls-22" d="M149.11,484c1.17,0,2.36,0,3-1.24,1.31.21,2.44.55,1.56,2.27-1.43-.06-2.63.2-2.69,2A4.48,4.48,0,0,1,149.11,484Z" transform="translate(-81.9 -237.9)"/><path class="cls-22" d="M464.15,485.36a3.7,3.7,0,0,0-2.05-3.35,1.32,1.32,0,0,1,0-2l3.08,2.11C465.25,483.31,465.39,484.56,464.15,485.36Z" transform="translate(-81.9 -237.9)"/><path class="cls-20" d="M530.07,475l-3.34-.15c0-1.54.16-2.9,2.18-2.9,1.09.24.08,2.42,1.86,2Z" transform="translate(-81.9 -237.9)"/><path class="cls-23" d="M124.11,451.52v-6.89A6.91,6.91,0,0,1,124.11,451.52Z" transform="translate(-81.9 -237.9)"/><path class="cls-24" d="M383.08,534.9l1.19.67c-.3.31-.71.93-.89.87a7,7,0,0,1-1.56-1Z" transform="translate(-81.9 -237.9)"/><path class="cls-5" d="M107.27,509.51l1.31,1.43c-.3.25-.66.76-.88.7a1.45,1.45,0,0,1-.91-.85C106.7,510.48,107,510,107.27,509.51Z" transform="translate(-81.9 -237.9)"/><path class="cls-25" d="M123.48,435.67c-.18-.87-.41-1.31-.31-1.67a1.92,1.92,0,0,1,.8-1.16c.66-.32.86.24.68.73A16.86,16.86,0,0,1,123.48,435.67Z" transform="translate(-81.9 -237.9)"/><path class="cls-15" d="M131.13,466.41l0-5.72A4.9,4.9,0,0,1,131.13,466.41Z" transform="translate(-81.9 -237.9)"/><path class="cls-5" d="M127.16,473.51c-1,.71-2.06.63-3.42,0A2.89,2.89,0,0,1,127.16,473.51Z" transform="translate(-81.9 -237.9)"/><path class="cls-5" d="M492.91,474.62c-1.61.38-2.34.57-3.08.69-.06,0-.36-.56-.28-.65C490.24,473.78,491.12,473.9,492.91,474.62Z" transform="translate(-81.9 -237.9)"/><path class="cls-21" d="M161.72,265.16q49-.1,98-.23c1.72,0,3.54.51,6.12-.94H162.22c2.52-1.51,4.34-1,6-1q46.25-.06,92.5,0c4.34,0,8.81-1.42,13,1,.49,2.21-1.09,2.7-2.66,3.2-17.32.5-34.65.14-52,.21-16.5.07-33,0-49.49,0-2.32,0-4.68.3-6.92-.64A1.69,1.69,0,0,1,161.72,265.16Z" transform="translate(-81.9 -237.9)"/><path class="cls-26" d="M151.87,291c-1.91-1.53-3-1.85-2.89,1.37.17,6.64,0,13.28,0,19.92q.11,43.58.28,87.15c0,1.16-.44,1.43-1.35,1.53.08-7.8.22-15.6.23-23.4q0-49.82,0-99.63c0-2.74-.62-5.68,1.49-8.06,2.18-.92,4.24-4.32,6.67-.34-2.62,3.44-3.05,7.37-3,11.57C153.36,284.43,154.47,288,151.87,291Z" transform="translate(-81.9 -237.9)"/><path class="cls-4" d="M156,269.1c-2.31-1.3-4.13,1.23-6.33.79.79-3.32,3.47-3.88,6.26-4.21,1.91-.23,3.84-.35,5.76-.51q.15.35.32.69c1.11,1.1,2.52.64,3.8.64q51.2,0,102.4,0c1.27,0,2.69.48,3.79-.64.55-.64,1.83-.6,1.7-1.86a8.54,8.54,0,0,1,3.43-4c1-.07,1.24.54,1.33,1.34-1.06,4.62-4.55,8.4-4.64,13.36a9.51,9.51,0,0,0-.17,5.48,2.36,2.36,0,0,1-.78,2,2.49,2.49,0,0,1-2.52-1.37,13,13,0,0,1-.57-6.75c.33-2.7-.76-4-3.33-4.33a19.51,19.51,0,0,0-5.46-.34q-46.54,0-93.07,0a20.35,20.35,0,0,0-6.41.56C159.6,270.3,157.67,270.58,156,269.1Z" transform="translate(-81.9 -237.9)"/><path class="cls-2" d="M287,253.1c3.82-.64,7.54-.6,11,1.54,3.85,2.6,7.88,5,9.12,10,.49,1-.1,1.36-.91,1.6a2.07,2.07,0,0,1-1.3-.66c-4.32-7-10.78-9.94-18.83-9.8-.72-.37-1.3-.83-1.08-1.77C285.55,253.45,286.81,254.4,287,253.1Z" transform="translate(-81.9 -237.9)"/><path class="cls-1" d="M294.85,246.94c.88.21,2-.3,2.95,1.32-4.91-1.77-6,5.44-10.78,3.74l-.12-2.29A11.49,11.49,0,0,1,294.85,246.94Z" transform="translate(-81.9 -237.9)"/><path class="cls-27" d="M100.9,438c.61,3.15-1.44,4.25-3.89,5.05-1-2.72,2.38-3.93,2.29-6.6C99.27,435.68,99.8,438,100.9,438Z" transform="translate(-81.9 -237.9)"/><path class="cls-28" d="M285,254l1.32,1.12c-1,2.46-3.14,2.94-5.37,3.34-.75-.26-1.38-.6-1-1.58C281.49,255.69,282.63,253.78,285,254Z" transform="translate(-81.9 -237.9)"/><path class="cls-17" d="M93,447a2,2,0,0,0,1.16,2.08c.26,1.7-.69,2.51-2.16,2.94a2.76,2.76,0,0,1-1.13-2.32A2.65,2.65,0,0,1,93,447Z" transform="translate(-81.9 -237.9)"/><path class="cls-29" d="M280,256.91l1.3,1.2c-.09,2-1.08,3.13-3.19,3.07l-.91-1.14C277.43,258.39,278.66,257.62,280,256.91Z" transform="translate(-81.9 -237.9)"/><path class="cls-27" d="M103.91,428c-.35,1.69-.65,3.4-1.92,4.71C101.94,430.86,101.81,429,103.91,428Z" transform="translate(-81.9 -237.9)"/><path class="cls-17" d="M496,413.92a2,2,0,0,1,1.12-2c8.65,7,14.14,15.85,15.8,26.84a5.4,5.4,0,0,0,3.07,4.37c.86,1.22.23,1.93-.86,2.47-3.34.35-5.73-1.18-6.09-4.39-1.07-9.65-5.83-17.43-11.78-24.69A4.55,4.55,0,0,1,496,413.92Z" transform="translate(-81.9 -237.9)"/><path class="cls-30" d="M518.18,444.49c1.86,2.52,5.22,3.82,5.91,7.29.59,1.21-.18,1.85-1,2.46a11.13,11.13,0,0,1-6.65-7.44A2.84,2.84,0,0,1,518.18,444.49Z" transform="translate(-81.9 -237.9)"/><path class="cls-20" d="M522.92,454.19l1.17-2.41c1.71,1.41,2.65,3.38,3.72,5.25l-1.87,2.1C523.17,458.56,522.78,456.54,522.92,454.19Z" transform="translate(-81.9 -237.9)"/><path class="cls-30" d="M518.18,444.49,517,447.13c-1.51.2-2.16-.58-2.25-2a2,2,0,0,0,1.29-2C517.08,443,517.67,443.69,518.18,444.49Z" transform="translate(-81.9 -237.9)"/><path class="cls-9" d="M310,265.89l1.6-.74c1.4.7,2.43-1.06,3.81-.56a1.64,1.64,0,0,1,.93,1.71c-1.05,3.41-3.17,6.43-3.56,10.08a19.19,19.19,0,0,0,.09,9.36c1.51,4.83,3.22,9.39,8.55,11.52,4.19,1.68,7.64,1.15,11-1.94,4.16-3.87,5.92-8.69,6.3-14.19.13-2-.18-4,.48-5.94.64-1.13,1.35-2,2.64-.73,1.62,5.16,5.27,6.12,10.34,6.08,27.44-.23,54.88-.14,82.32-.07,3,0,6.45-.77,8.68,2.41-1.18,3.59-4.29,2.47-6.67,2.47q-43.87.11-87.74,0c-1.94,0-4-.6-5.57,1.23-1.42,3.14-2.09,6.56-4.05,9.53-7.52,11.38-21.59,10.8-28.1-1.23-.86-1.59-1.09-4.64-4.16-2.21a2.6,2.6,0,0,1-2.16-.7c-.2-.46-.51-1-.32-1.42,3.21-7.54,3.35-15.36,2.16-23.3C307.31,265.81,309,266.68,310,265.89Z" transform="translate(-81.9 -237.9)"/><path class="cls-9" d="M336.2,265.9l3.37-.05c6.63-.14,13.17-1.33,19.83-1.31,30.31.09,60.61,0,90.92,0a48.23,48.23,0,0,1,7,.2,8.17,8.17,0,0,1,2.68,1.28c.15,1.28,1.51.47,2,1.15.95,2.76-.91,3.31-2.93,3.73-32.26-.83-64.53-.15-96.79-.36-6.65,0-13.31,0-19.95,0-1.41-.16-2.66.58-4,.74-2.46-1-3.8-2.64-3.46-5.4A1,1,0,0,1,336.2,265.9Z" transform="translate(-81.9 -237.9)"/><path class="cls-23" d="M473.45,401.86c-8.51.49-8.51.49-8.51-7.88q0-48.6,0-97.21c0-1.69,1.37-4.87-2.75-3.77a1.86,1.86,0,0,1-.29-2.38c2.17-1.69,1.46-4.13,1.7-6.36.45-4.14-1.28-8.56,1.5-12.42,1.77,7.36.64,14.83.68,22.23.17,32.55.08,65.1.08,97.65C465.82,400.09,465.82,400.09,473.45,401.86Z" transform="translate(-81.9 -237.9)"/><path class="cls-31" d="M458.19,265.9c-22.93.08-45.86.21-68.79.21-16.61,0-33.22-.17-49.84-.26l9.43-.72c1.33-1.34,3.06-1.12,4.7-1.12q50.32,0,100.64,0a9.71,9.71,0,0,1,3,.32A1.37,1.37,0,0,1,458.19,265.9Z" transform="translate(-81.9 -237.9)"/><path class="cls-21" d="M458.19,265.9a1.67,1.67,0,0,1-.25-.67c-1.56-1.49-3.49-.7-5.22-.71q-49.16-.08-98.33-.06c-1.8,0-3.66.46-5.39-.46l-2-.21c.45-1.32,1.43-.77,2.08-.77q52.5,0,105-.05c2.61,0,5.09-.14,5.92,3.1Z" transform="translate(-81.9 -237.9)"/><path class="cls-1" d="M349,264q51.71,0,103.42,0c1.86,0,4.06-.92,5.52,1.19q-41.49.11-83,.2c-8.65,0-17.31-.19-26-.3Q349,264.57,349,264Z" transform="translate(-81.9 -237.9)"/><path class="cls-32" d="M331.82,252.37c-2.84-.48-5.42-.87-8-1.37-1.5-.29-3.87,1.05-3.88-2.19,0-2.86,1-4.86,3.83-5.56C328.88,242,332.17,245.57,331.82,252.37Z" transform="translate(-81.9 -237.9)"/><path class="cls-20" d="M465.06,271.85c0,5.24-.11,10.49-.06,15.73,0,2.08-.34,3.62-2.89,3.42-1.31-1-1.49-2.51-1.5-4-.05-5.68-.18-11.35-.65-17a2.94,2.94,0,0,0,2-2.79A5.36,5.36,0,0,1,465.06,271.85Z" transform="translate(-81.9 -237.9)"/><path class="cls-33" d="M316,265.72l-1.26-.84c-.19-1,.55-1.43,1.19-1.91a14.09,14.09,0,0,1,6.1-2.87,1.82,1.82,0,0,1,.53,1.22,2.42,2.42,0,0,1-.58,1.21C319.77,263.22,318.94,266.47,316,265.72Z" transform="translate(-81.9 -237.9)"/><path class="cls-34" d="M315.91,263l-1.19,1.91c-1,.22-2,1.34-3.11.28,2.94-.62,1.91-4.75,4.7-5.52C317.62,261,314.53,261.65,315.91,263Z" transform="translate(-81.9 -237.9)"/><path d="M332,260.89l1,1.18c.29.89-.25,1.27-.95,1.56a4.29,4.29,0,0,1-3.35-.87,4.77,4.77,0,0,1-2-2,1.22,1.22,0,0,1,.62-1.17C329.1,259.17,330.55,260,332,260.89Z" transform="translate(-81.9 -237.9)"/><path class="cls-35" d="M331.69,263.18l1.27-1.11c1.77.69,3.18,1.69,3.24,3.83L335,266C332.77,266.34,331.94,265.09,331.69,263.18Z" transform="translate(-81.9 -237.9)"/><path class="cls-34" d="M332,260.89c-1.71-.11-3.16-1.49-5-1-.88.52-1.14,0-1.29-.75L331,259h0Z" transform="translate(-81.9 -237.9)"/><path d="M325.71,259.16l1.29.75q0,.4,0,.8c-1.55,1.9-3.24,1.55-5,.34q0-.48,0-1Z" transform="translate(-81.9 -237.9)"/><path d="M310,265.89c-.73,1.3-2,1.05-3.19,1.17-.75,0-1.14-.26-.69-1.06l1-1.34Z" transform="translate(-81.9 -237.9)"/><path class="cls-36" d="M331,259c1.09-1.35,2.17-1.21,3.48.26-1.34,1-2.4-.55-3.48-.26Z" transform="translate(-81.9 -237.9)"/><path class="cls-1" d="M92,452l2.16-2.94c5.38-3.12,9.41-6.46,11-13.57,4.59-20.35,19.18-30.49,42.76-31.47.78,2.65,1.22,5.28-.24,7.86-4.5,0-8.81.65-12.68,3.14-3.4.91-6,3.21-8.91,5-1.53-.23-3-.22-3.83,1.4-.65,1.2.91,1,1,1.66-3.09,3.77-4,8.48-5.52,12.93-.31.57-.35,1.23-.62,1.82s-1.21-.4-1.19.43c0,.35.79.45,1.17.76-.43,2.92.41,5,3.65,5.42a8.53,8.53,0,0,1,.5,6.54c-1.42,4.14-.45,7.47,4.61,8.24,2.9,1.92,3.6,4.42,2,7.53L126,468c-2,.93-4,.54-6,.15-4.42-.35-6.42-3.65-8.41-6.93-2.59-4.27-6.25-4.73-10.36-1.26-3.47,3.24-3.36,8.16-5.59,12-1.15,2-2.33,4.14-5.19,3.89a6.45,6.45,0,0,1-5.86-5.27c-.34-3.06.91-6.49,2.16-9.48C88.09,457.9,90.21,455,92,452Z" transform="translate(-81.9 -237.9)"/><path class="cls-27" d="M101,465.12l2.4-3.08a17.15,17.15,0,0,1,.71,13,18.34,18.34,0,0,1-3.38,1.86,3,3,0,0,1-3.18-.87c-.92-1.07.3-1.76.65-2.49A29.87,29.87,0,0,0,101,465.12Z" transform="translate(-81.9 -237.9)"/><path class="cls-1" d="M514.7,445.15l2.25,2,6,7.05,3,4.94c1,4.27,3.9,8.12,3,12.84l-2.18,2.9c-4.54,2.21-7.24.26-8.87-4-1.07-2.78-1.9-5.67-3.19-8.34s-3-4.81-6.37-4.82c-3.22,0-5.31,1.34-6.39,4.43A14.1,14.1,0,0,1,500,465c-3,2-6.07,4-10,2.92-2.37-1.48-5.11-2.73-4.16-6.38,1.63-1.83,5.3-10.52,6.34-14.77.18-.75.63-1.84,1.2-2,4.6-1.45,3.28-4.73,2.79-8-1.16-7.55-4.55-13.64-11-17.88-3.29-2.81-7.23-4.45-11.14-6.13,1.26-2.55-2.44-5.1,0-7.65,8.48,0,15.59,3.53,22,8.75,7.56,7.51,13.09,16.11,14.16,27C510.45,443.84,512.25,444.74,514.7,445.15Z" transform="translate(-81.9 -237.9)"/><path class="cls-1" d="M460,270c2.31,2.17,2,5,2,7.77,0,4.4.12,8.8.19,13.21l0,2c-.07,3.82-.21,7.63-.21,11.45q0,85,0,170.06c0,1.82.12,3.65.18,5.47l0,2c-1.24,1-1.53,2.89-3.19,3.51-3.33,0-6.56.13-8.82-3.3-1.07-1.62-3.44-.7-5.2-.71q-124.44-.05-248.87,0c-9.09,0-18.18,0-27.27,0q140.49,0,281.3,0c-.44,2.35-1.77,2.55-3,2.72a51.6,51.6,0,0,1-7,.18l-276.82,0a10.4,10.4,0,0,0-1.29.86c-1.94.5-4-.16-5.91.44a1.6,1.6,0,0,1-2.34-.72l-1.56-2.27q0-91.64-.05-183.27c0-2.83-.12-5.65-.19-8.48.08-4.94.36-9.88.17-14.81-.13-3.37.84-5.75,4-7.09l5-.11c1.22-.77,2.59-.46,3.89-.46q49.6,0,99.2,0c1.31,0,2.67-.3,3.9.45,2.16.09,3.56.49,3.09,3.38a21.53,21.53,0,0,0,0,8.65c-1.31,3.4-4.34,2.42-6.76,2.43-26.39.08-52.79,0-79.19.05-4,0-8-.07-12,0-5,.12-6.5,1.66-6.73,6.57-.11,2.49,0,5,0,7.47,0,.64,0,1.28,0,1.92q-.08,81.4,0,162.8c0,2.92-.6,6.1,2.31,8.24a9.7,9.7,0,0,0,5.33,1.06q132.16,0,264.31,0c1.5,0,3,0,4.48-.11a6.21,6.21,0,0,0,2.87-1.36c1.84-1.81,1.47-4.23,1.77-6.48.22-53.51,0-107,.09-160.51,0-.88,0-1.77,0-2.64.06-2.62-.09-5.25.1-7.86.31-4.17-1.07-7.36-4.72-9.5-1.58-1.69-3.65-1.2-5.59-1.2-29.61,0-59.21-.06-88.82,0-4.11,0-7.69.18-6.9-5.6.1-.73-.49-1.56-.76-2.35-1.55-1.46-2.29-3-.62-4.9q55.92.07,111.85.12A26.65,26.65,0,0,1,460,270Z" transform="translate(-81.9 -237.9)"/><path class="cls-1" d="M241.8,514l1.1-2,.5.15a26.85,26.85,0,0,1,7.32-.6q56.84,0,113.68,0c2.34,0,4.67-.16,6.62,1.49l1.17,1a63.82,63.82,0,0,1-.09,15c-1.37,2.1-3.46,2.23-5.7,2.23q-59.33,0-118.66,0c-2.1,0-4.72.69-5.84-2.21A70.66,70.66,0,0,1,241.8,514Z" transform="translate(-81.9 -237.9)"/><path class="cls-37" d="M353.5,507.85c-14.59-.09-29.18-.25-43.78-.25-16.42,0-32.84.15-49.26.23-2.69-1.77-.92-4.31-.83-6.37.18-4.11-1.31-8.39.9-12.35,7.94.11,15.89.32,23.83.3,23,0,46.06-.18,69.1-.28,1.51.53,1,1.35.32,2.2-28.15.35-56.3.05-84.45.17-1.51,0-3.09-.29-4.15.07.33-.62,1.47,0,2.36,0q42.23-.05,84.46,0a6.54,6.54,0,0,1,2,.26C354.57,497.16,355.34,502.55,353.5,507.85Z" transform="translate(-81.9 -237.9)"/><path class="cls-14" d="M156,485.74c1.83-1.42,4-.41,6-.88,2-.67,4-.33,5.95-.33q138.92,0,277.85,0c1.78,0,3.6.22,5.33-.37.64-.27-.41-.68,0-.13.11.17,0,.23-.39.31a19.79,19.79,0,0,1-4.45.15q-139.42,0-278.85,0c-1.8,0-3.67.46-5.4-.46-.16,0-.38,0-.48-.1a3.36,3.36,0,0,1-.43-.63c1.62-.09,3.23-.26,4.85-.26H448.76v-.89H165c2.76-1.61,4.58-1.08,6.3-1.08q137.2,0,274.41,0c2.71,0,5.49-.56,7.29,2.51,1.28,2.18,4.06,1,5.92,2-7.49.11-15,.28-22.46.31q-38.72.16-77.44.23c-2-.07-4-.21-6-.21H161C159.35,485.84,157.68,485.77,156,485.74Z" transform="translate(-81.9 -237.9)"/><path class="cls-18" d="M371,513a28.35,28.35,0,0,0-7.86-1q-55.75.07-111.49-.07c-2.77,0-5.49,2-8.26.2,1.67-1.59,3.77-.92,5.66-.92q58.15-.07,116.31,0C367.34,511.21,369.83,510.23,371,513Z" transform="translate(-81.9 -237.9)"/><path class="cls-9" d="M266.33,509.14h86.34v.5H266.13Z" transform="translate(-81.9 -237.9)"/><path class="cls-9" d="M163.33,487.14h85.34v.5H163.14Z" transform="translate(-81.9 -237.9)"/><path class="cls-9" d="M307.1,487.28h45.59v.37H307.11Z" transform="translate(-81.9 -237.9)"/><path class="cls-9" d="M303.91,487.73H266.29v-.38h37.62Z" transform="translate(-81.9 -237.9)"/><path class="cls-26" d="M260.53,489.11a47.23,47.23,0,0,0-.07,18.72L259,508a3.53,3.53,0,0,1-.18-3.9c.06-3.6.06-7.2.19-10.79C259,491.76,258.34,489.87,260.53,489.11Z" transform="translate(-81.9 -237.9)"/><path class="cls-22" d="M353.5,507.85c1.54-5.24.63-10.56.51-15.85q-.56-.33-.37-.67c.12-.22.25-.33.37-.33l-.55-1.87c.47.4,1.38.83,1.36,1.19C354.37,496.17,356.92,502.25,353.5,507.85Z" transform="translate(-81.9 -237.9)"/><path class="cls-20" d="M372.09,529l.09-15c1.94,2.1.82,4.56.87,6.9.05,2.72-.54,5.52.92,8.08Z" transform="translate(-81.9 -237.9)"/><path class="cls-9" d="M357.84,493q0,5,0,10C356.18,499.67,356.71,496.34,357.84,493Z" transform="translate(-81.9 -237.9)"/><path class="cls-9" d="M256.13,503l0-9A10.46,10.46,0,0,1,256.13,503Z" transform="translate(-81.9 -237.9)"/><path class="cls-9" d="M258.8,504.07,259,508C256.73,506.78,256.53,505.48,258.8,504.07Z" transform="translate(-81.9 -237.9)"/><path class="cls-38" d="M150.52,422.71v58.39h-.83V422.72Z" transform="translate(-81.9 -237.9)"/><path class="cls-16" d="M147.68,411.89c.89-2.6.59-5.23.24-7.86C149.52,406.7,149.92,409.33,147.68,411.89Z" transform="translate(-81.9 -237.9)"/><path class="cls-10" d="M474,405.17c-.59,2.55,2.66,5.1,0,7.65a15.81,15.81,0,0,0-3.88-.63c-5,.43-4.71-2.88-4.34-6.06.47-4.13,3.56-1.39,5.41-1.78C472,404.18,473.06,404.87,474,405.17Z" transform="translate(-81.9 -237.9)"/><path class="cls-17" d="M241.8,514l.09,15c-1.95-4.89-.39-10-.9-15Z" transform="translate(-81.9 -237.9)"/><path class="cls-1" d="M252,490c-1,1.24-2.4,1-3.7,1q-41.48,0-83,0a2.74,2.74,0,0,1-2.21-1H252Z" transform="translate(-81.9 -237.9)"/><path class="cls-39" d="M510.54,462.13c3.34,3.56,3.24,8.13,4.95,11.94.57,1.27-1,2.25-2.09,2.73-1.67.76-2.85-.22-3.47-1.75C508.18,470.78,508.6,466.61,510.54,462.13Z" transform="translate(-81.9 -237.9)"/><path class="cls-40" d="M485.84,461.58c.08,3,3.06,4.07,4.16,6.38-1.51.54-2.56-.62-3.81-1C485.28,465.2,484.14,463.49,485.84,461.58Z" transform="translate(-81.9 -237.9)"/><path class="cls-16" d="M120,468.2l6-.15C124.06,470.35,122,469.41,120,468.2Z" transform="translate(-81.9 -237.9)"/><path class="cls-27" d="M123.31,423.1c-2.14.06-2.25-1.92-1.51-2.57,1-.87,2.63-2.79,4.3-.48Z" transform="translate(-81.9 -237.9)"/><path class="cls-36" d="M117.15,439c-2.54,1-2.46-.92-2.07-2.22.83-2.76.86,1.65,1.73.28a8.05,8.05,0,0,1,1-1.07C117.82,437.08,118,438.16,117.15,439Z" transform="translate(-81.9 -237.9)"/><path class="cls-38" d="M272,265.86c-1.38,1.82-3.36,1.11-5.1,1.11q-49.91.06-99.82,0c-1.72,0-3.72.75-5.08-1.11,6.3-.09,12.6-.28,18.89-.27Q226.48,265.68,272,265.86Z" transform="translate(-81.9 -237.9)"/><path class="cls-1" d="M306.14,266c-.19.63.11.94.69,1.06,3.07,8.63,2.41,16.9-2.35,24.78-1.3,5.26-5.67,6.77-10.07,8.27a52.65,52.65,0,0,1-7.09.19,11.61,11.61,0,0,1-7.88-3.52,22.27,22.27,0,0,1-6.53-9.69c-.52-1.68-1.43-3.43.12-5.09l-.15-2a8,8,0,0,1,0-5c0-5.27,2.48-9.6,5.22-13.83l3.19-3.07,5.06-3C295.64,253.83,301.95,258,306.14,266Z" transform="translate(-81.9 -237.9)"/><path class="cls-4" d="M273,282a22.3,22.3,0,0,0,7.15,13.61,2,2,0,0,1-1.77,2.67c-3.66-1-5-4.24-6.31-7.25-1.36-3.2-3.43-4.53-6.88-4.52-30,0-59.91,0-89.86.05-2,0-4,.15-5.63,1.55-1.95,1.86-1,4.33-1.46,6.52-.33,1.75,0,4.33-3.25,3.36-1-14.28-.38-16.35,14.55-16.19,28.79.33,57.58.11,86.37,0,1.7,0,3.67.87,5.13-.85Z" transform="translate(-81.9 -237.9)"/><path d="M268,269c-14.76.08-29.52.24-44.28.23-20.9,0-41.81-.14-62.71-.21,1.3-1.52,3.08-1,4.67-1q48.82,0,97.64,0C264.91,268,266.68,267.48,268,269Z" transform="translate(-81.9 -237.9)"/><path class="cls-29" d="M272.85,275l0,5A3.71,3.71,0,0,1,272.85,275Z" transform="translate(-81.9 -237.9)"/><path class="cls-1" d="M168,287c1.49-1.94,3.57-2.1,5.81-2.1q47.12,0,94.24,0c2.58,0,3.7.7,4.44,3.26,1.13,3.9,2.92,7.61,6.5,10,3.18-.06,5.28,2.77,8.33,3.05a12.21,12.21,0,0,0,7.3,0c5.16-1.71,8.55-5.85,12.57-9.13l2.32-3.53c1.58,4.05,3.21,7.75,6.3,10.58a13.83,13.83,0,0,0,11.42,3.9c6.73-.8,12.51-7.31,13.92-15.63.27-3.06,2.49-3,4.72-3,16.49.24,33,.06,49.47.1q23,0,46,0c2.24,0,4.39-.1,5.54,2.34.77,2.09.58,4.27.59,6.43q0,83.13,0,166.27a65.61,65.61,0,0,1-.56,8,5.17,5.17,0,0,1-1.7,2.47c-1.84,1.44-4,1.44-6.19,1.44-89.18,0-178.36.13-267.54-.06a5.05,5.05,0,0,1-4.51-3.63,29.25,29.25,0,0,1-.34-6.47q0-78,0-155.92C166.63,299.2,167.6,293.12,168,287Z" transform="translate(-81.9 -237.9)"/><path class="cls-34" d="M331.69,263.18,335,266l3.16,5c2,1.4,1.17,3.65,1.7,5.48.13,4.17.18,8.31-1.33,12.32-2.66,7-8.3,11.5-13.9,10.93-6.24-.64-11.11-5.86-12.64-13.55a52.94,52.94,0,0,1-.22-10.25c0-4,2.35-7,4.26-10.19,2.07-1.16,3.29-3.68,6-3.8a13.2,13.2,0,0,1,7,0Z" transform="translate(-81.9 -237.9)"/><path class="cls-2" d="M446.06,287a8,8,0,0,0-5.83-2.12q-47.25.1-94.5,0c-2,0-4-.15-4.61,2.46-.49-4.49,2.89-3.63,5.3-3.63q46.91.05,93.82.25a3.3,3.3,0,0,0,2.74-.87c4.61-.69,5.7,2.65,6.06,5.93.39,3.6,0,7.3-.08,10.95-3,1.11-2.3-1.27-2.43-2.7C446.22,293.88,447,290.4,446.06,287Z" transform="translate(-81.9 -237.9)"/><path class="cls-28" d="M307.15,292.06c-2.27,5.36-6.66,8.2-11.91,10a20.83,20.83,0,0,1-8.67,0c-3.24,0-5.42-2-7.63-4l1.23-2.55c1.7,2.31,4.45,2.61,6.85,3.58,2.66.9,5.31.44,8-.09,3.53-1.93,7.09-3.83,9.49-7.25Z" transform="translate(-81.9 -237.9)"/><path class="cls-27" d="M311.72,275.91a21.69,21.69,0,0,1,.22,10.25A14.2,14.2,0,0,1,311.72,275.91Z" transform="translate(-81.9 -237.9)"/><path class="cls-31" d="M339.81,276.46l-1.7-5.48c.91-.41.86-1.94,2.19-1.86-1.14,1.8.92,3.21.62,4.9Z" transform="translate(-81.9 -237.9)"/><path class="cls-41" d="M329,261.92h-7q0-.43,0-.87l5-.33Z" transform="translate(-81.9 -237.9)"/><path class="cls-18" d="M92,470c-2.36-1.67.85-5.25-2.54-6.57,4.25,1,1.82,4.34,2.54,6.57Z" transform="translate(-81.9 -237.9)"/><path class="cls-18" d="M92,470c1.73-.86.16-4.35,3.49-3.92-2.15.52.24,4.67-3.49,3.92Z" transform="translate(-81.9 -237.9)"/><path class="cls-10" d="M126.83,414.47c-.72-.46-.6-.94-.28-1.31a2.24,2.24,0,0,1,1.13-.8c.62-.11.8.4.46.85A10.45,10.45,0,0,1,126.83,414.47Z" transform="translate(-81.9 -237.9)"/><path class="cls-36" d="M501,458.71c-.3.45-.54,1.15-1,1.45s-.86-.25-.66-.72a9.81,9.81,0,0,1,1.07-1.61Z" transform="translate(-81.9 -237.9)"/><path class="cls-32" d="M445.09,472.2c-1.39,1.33-3.14.86-4.74.86q-132.93,0-265.85,0a12.46,12.46,0,0,1-1.48-.17c0-1.74,1-2.31,2.54-2.37,1.33,0,2.66,0,4,0q130.11,0,260.23.08C441.52,470.6,444.17,469,445.09,472.2Z" transform="translate(-81.9 -237.9)"/><path class="cls-32" d="M167.95,468c.82,1,1.46,2.22,3,2.17.24,1.62-1.07,1.73-2.07,2.14-3.43-.85-4.06-3.56-4.13-6.49-.09-4,0-8,0-12q0-73.43,0-146.86c0-2.66.15-5.31.23-8,1.41-.75,2.25-.27,2.44,1.24a36.16,36.16,0,0,1,.07,4.49q0,78.93,0,157.86C167.51,464.39,167.08,466.25,167.95,468Z" transform="translate(-81.9 -237.9)"/><path d="M448.92,302c.08,2.32.22,4.64.22,7q0,75.84,0,151.68c0,1.79.35,3.66-.88,5.25a1.1,1.1,0,0,1-1.64-.3c-.25-51.37,0-102.75-.12-154.12,0-2.33.18-4.64.12-7C446.58,303,447.17,302,448.92,302Z" transform="translate(-81.9 -237.9)"/><path class="cls-34" d="M162,484H451.05c-.84,1.47-1.89,1-2.69,1q-141.94,0-283.87,0c-.83,0-1.66-.08-2.49-.12Q162,484.43,162,484Z" transform="translate(-81.9 -237.9)"/><path class="cls-16" d="M168.89,472.31l2.07-2.14q132.17,0,264.34-.1c3.24,0,6.64.85,9.69-1.08a2.17,2.17,0,0,1,1.71,2,1.66,1.66,0,0,1-1.61,1.25c-1.35-1.85-3.34-1.16-5.08-1.16q-130.37,0-260.74,0c-2.21,0-4.8-.84-6.26,1.86C171.6,473,170.14,473.39,168.89,472.31Z" transform="translate(-81.9 -237.9)"/><path class="cls-21" d="M168.33,479.14H447.67v.5H168.13Z" transform="translate(-81.9 -237.9)"/><path class="cls-16" d="M448.92,302c-2.95,1.8-1.75,4.84-1.75,7.2q-.2,75.39-.1,150.79c0,2,.06,3.95.1,5.92.37,1.21.68,2.39-1.34,2a21.5,21.5,0,0,0,.28-2.47q0-89.23,0-178.46c2,2.69.53,5.76,1,8.63.25,1.63-.83,3.85,1.94,4.37Z" transform="translate(-81.9 -237.9)"/><path class="cls-16" d="M167.95,468c-1.69-1.67-.95-3.79-.95-5.7q-.06-79-.1-157.92c0-1.86,1.37-4.56-1.92-5.37l0-1c2.47-.38,1.74-2.33,2-3.87.32-2.38-.92-5,1-7.13q-.08,52.6-.15,105.2C167.8,417.47,167.9,442.73,167.95,468Z" transform="translate(-81.9 -237.9)"/><path class="cls-18" d="M162.14,462.67V311.33h.5V462.87Z" transform="translate(-81.9 -237.9)"/><path class="cls-32" d="M445.83,467.94c1-.31,1.16-1.17,1.34-2h1.1c1.94,2.44-.45,3.55-1.56,5L445,469A.88.88,0,0,1,445.83,467.94Z" transform="translate(-81.9 -237.9)"/><path class="cls-18" d="M251.33,514.14H360.67v.5H251.13Z" transform="translate(-81.9 -237.9)"/><path class="cls-18" d="M251.33,516.14H359.67v.5H251.13Z" transform="translate(-81.9 -237.9)"/><path class="cls-10" d="M354,491v1H264.23v-1Z" transform="translate(-81.9 -237.9)"/><path class="cls-42" d="M299.49,276.89a2.25,2.25,0,0,1,2.16,2.27,2.2,2.2,0,0,1-2.56,2.31,2.09,2.09,0,0,1-2.12-2.24C297,277.68,298,277,299.49,276.89Z" transform="translate(-81.9 -237.9)"/><path class="cls-18" d="M302.38,283.58c.7-2.55,3.22-3,3.28-5.73C306.91,280.91,306.91,280.91,302.38,283.58Z" transform="translate(-81.9 -237.9)"/><path class="cls-22" d="M295,299.1c-2.64,1.05-5.28,2.36-8,.09Z" transform="translate(-81.9 -237.9)"/><path class="cls-20" d="M300,324.93c-16.42-1.1-30.66-6.38-40.11-20.88a1.47,1.47,0,0,1,1.18-1.2c8.43,11.39,19.82,17.58,33.79,19.29a12.58,12.58,0,0,1,2.33.75C297.47,324.48,300.41,322.38,300,324.93Z" transform="translate(-81.9 -237.9)"/><path class="cls-30" d="M354.16,299.8c1.14.64,2.93,1.64,1.52,2.83-5.44,4.6-8.88,11.34-15.62,14.5a1.8,1.8,0,0,1-1.5-1.35c5.38-4.27,10.94-8.36,14.26-14.63C352.69,300.13,353.05,299.59,354.16,299.8Z" transform="translate(-81.9 -237.9)"/><path class="cls-38" d="M300,324.93c-.11-1.82-3.11.35-2.81-2l3.83.23a43.36,43.36,0,0,0,13,0l11-2c.63.44,1.53.72,1,1.8C317.48,325.67,308.77,325.73,300,324.93Z" transform="translate(-81.9 -237.9)"/><path class="cls-15" d="M326,322.93l-1-1.8c4.8-1.07,9.05-3.52,13.55-5.36l1.5,1.35A47.86,47.86,0,0,1,326,322.93Z" transform="translate(-81.9 -237.9)"/><path class="cls-20" d="M314,323.09a19.38,19.38,0,0,1-13,0Z" transform="translate(-81.9 -237.9)"/><path d="M261.07,302.85l-1.18,1.2c-.71-.6-2.28-.25-2.28-1.42a1.77,1.77,0,0,1,2.24-1.86.7.7,0,0,1,1,.24Z" transform="translate(-81.9 -237.9)"/><path class="cls-10" d="M293.83,387.19v6.61h-.5v-6.61Z" transform="translate(-81.9 -237.9)"/><path class="cls-22" d="M286.57,302.12l8.67,0A10.1,10.1,0,0,1,286.57,302.12Z" transform="translate(-81.9 -237.9)"/><path class="cls-10" d="M343,294c-1.36-1.15-1.31-2.51.3-3,2.27-.65,2.33.3.56,1.44A1.72,1.72,0,0,0,343,294Z" transform="translate(-81.9 -237.9)"/><path class="cls-43" d="M260.88,301l-1-.24c.22-1.83,1.48-2,2.91-1.74.21,0,.56.47.53.54A2.87,2.87,0,0,1,260.88,301Z" transform="translate(-81.9 -237.9)"/><path class="cls-5" d="M356.73,296.29c2-.38,2.39.68,2.54,2.22C357.8,298.37,357.5,297.23,356.73,296.29Z" transform="translate(-81.9 -237.9)"/><path class="cls-10" d="M343,294a6.87,6.87,0,0,1,2.29,3.73c-2.37-.48-2.28-2.14-2.29-3.74Z" transform="translate(-81.9 -237.9)"/><path class="cls-25" d="M353.54,315.13c-.15.93-.53,1.48-1.29,1.23a1.3,1.3,0,0,1-.68-1.08,6.08,6.08,0,0,1,1-1.58Z" transform="translate(-81.9 -237.9)"/><path class="cls-44" d="M354.16,299.8l-1.34,1.34c-.71-.56-2.39-1.08-1.91-1.72C351.7,298.36,353.17,298.62,354.16,299.8Z" transform="translate(-81.9 -237.9)"/><path class="cls-24" d="M284.32,305.09c.71-1.44,1.72-1.15,2.87-.75A2.44,2.44,0,0,1,284.32,305.09Z" transform="translate(-81.9 -237.9)"/><path class="cls-24" d="M321.82,308c-.89-.08-2.52-.07-2.54-.26-.16-1.23.93-.55,1.49-.66a3.41,3.41,0,0,1,1.28.28Z" transform="translate(-81.9 -237.9)"/><path class="cls-24" d="M259.86,312.61l.67.6a8.27,8.27,0,0,1-1.4,1.09c-.58.28-1-.13-.7-.64S259.4,312.93,259.86,312.61Z" transform="translate(-81.9 -237.9)"/><path class="cls-27" d="M219.54,365.28c-.52.26-.89.62-1.17.56s-.64-.5-.95-.78c.3-.25.63-.74.89-.7S219,364.84,219.54,365.28Z" transform="translate(-81.9 -237.9)"/><path class="cls-15" d="M319.56,277c.47,1.07,3,.29,2.38,2.26-.28.91-.9,2.27-2.3,2.1s-2.7-.72-2.33-2.36C317.52,278.11,317.84,276.63,319.56,277Z" transform="translate(-81.9 -237.9)"/><path class="cls-10" d="M333.52,290.32c-.9-1-1.85-1.92-.84-3.29a.93.93,0,0,1,1.6,0C335.36,288.36,334.36,289.3,333.52,290.32Z" transform="translate(-81.9 -237.9)"/></svg>